<?xml version="1.0" encoding="UTF-8"?>
<svg id="Capa_1" xmlns="http://www.w3.org/2000/svg" version="1.1" viewBox="0 0 606.09 195.29">
  <!-- Generator: Adobe Illustrator 29.3.1, SVG Export Plug-In . SVG Version: 2.1.0 Build 151)  -->
  <defs>
    <style>
      .st0 {
        fill: #433b37;
      }
    </style>
  </defs>
  <path class="st0" d="M83.26,58.49h-8.65c-.67,0-1.21.55-1.21,1.21v76.07c0,.67.55,1.21,1.21,1.21h46.29c.67,0,1.21-.55,1.21-1.21v-8.08c0-.67-.55-1.21-1.21-1.21h-35.21c-.67,0-1.21-.55-1.21-1.21V59.7c0-.67-.55-1.21-1.21-1.21Z"/>
  <path class="st0" d="M334.81,83.23c.83,0,1.43-.79,1.21-1.59-1.82-6.34-5.74-12.27-11.18-16.65-6.28-5.06-13.9-7.73-22.04-7.73-9.76,0-19.01,4.11-26.01,11.59-7.14,7.62-11.07,17.87-11.07,28.88s3.93,21.26,11.07,28.88c7,7.47,16.24,11.59,26.01,11.59,10.54,0,18.83-4.97,23.84-10.38.69-.74,1.92-.39,2.1.61l1.28,7.54c.1.59.61,1.01,1.2,1.01h5.21c.67,0,1.21-.55,1.21-1.21v-37.25c0-.67-.55-1.21-1.21-1.21h-30.85c-.67,0-1.21.55-1.21,1.21v7.42c0,.67.55,1.21,1.21,1.21h19.23c.75,0,1.33.66,1.2,1.4-.79,4.91-3.16,9.42-6.79,12.85-4.36,4.12-10.04,6.3-16.43,6.3-14.58,0-26-13.16-26-29.96s11.42-29.96,26-29.96c11.93,0,19.14,7.4,22.07,14.69.18.47.64.77,1.15.77h8.79,0Z"/>
  <path class="st0" d="M535.89,59.21l-26.27,58.62c-.43.96-1.79.96-2.22,0l-26.37-59.08-.12-.26h-9.16c-.67,0-1.21.55-1.21,1.21v76.07c0,.67.55,1.21,1.21,1.21h8.53c.67,0,1.21-.55,1.21-1.21v-45.43c0-1.31,1.79-1.69,2.33-.5l20.85,46.42c.19.43.63.72,1.11.72h4.98c.48,0,.91-.28,1.11-.72l21.07-46.88c.54-1.19,2.33-.81,2.33.5v45.89c0,.67.55,1.21,1.21,1.21h8.43c.67,0,1.21-.55,1.21-1.21V59.7c0-.67-.55-1.21-1.21-1.21h-7.93c-.48,0-.91.28-1.11.72"/>
  <path class="st0" d="M576.62,0h-136.58c-16.27,0-29.47,13.18-29.47,29.44v100.02l-32.6-108.62c-3.71-12.36-15.11-20.84-28.04-20.84h-134.4c-10.59,0-19.56,5.52-24.69,13.55-5.24-8.14-14.39-13.55-24.8-13.55H29.47C13.2,0,0,13.18,0,29.44v136.42c0,16.26,13.2,29.44,29.47,29.44h136.58c16.27,0,29.47-13.18,29.47-29.44v-101.49l33.04,110.09c3.71,12.36,15.11,20.84,28.04,20.84h134.4c10.44,0,19.31-5.36,24.47-13.2,5.28,7.95,14.31,13.2,24.58,13.2h136.58c16.27,0,29.47-13.18,29.47-29.44V29.44c0-16.26-13.2-29.44-29.47-29.44ZM185.62,165.85c0,10.78-8.78,19.55-19.57,19.55H29.47c-10.79,0-19.57-8.77-19.57-19.55V29.44c0-10.78,8.78-19.55,19.57-19.55h136.58c10.79,0,19.57,8.77,19.57,19.55v136.42ZM406.55,177.6c-3.69,4.96-9.36,7.79-15.53,7.79h-134.4c-4.19,0-8.2-1.33-11.56-3.82-3.37-2.5-5.78-5.95-6.99-9.96l-41.06-136.82c-1.78-5.92-.67-12.15,3.01-17.1,3.69-4.96,9.36-7.79,15.53-7.79h134.39c4.19,0,8.2,1.33,11.56,3.82,3.37,2.51,5.78,5.95,6.99,9.96l41.07,136.82c1.78,5.92.67,12.15-3.01,17.1ZM596.2,165.85c0,10.78-8.78,19.55-19.57,19.55h-136.58c-10.79,0-19.57-8.77-19.57-19.55V29.44c0-10.78,8.78-19.55,19.57-19.55h136.58c10.79,0,19.57,8.77,19.57,19.55v136.42Z"/>
</svg>